<?xml version="1.0" encoding="UTF-8"?>
<svg version="1.1" viewBox="0 0 2048 690" width="1280" height="1280" xmlns="http://www.w3.org/2000/svg">
<path transform="translate(1942,48)" d="m0 0h38l26 1-1 13-12 100-17 139-1 7 18 3 6 4 2 4v8l-3 20-7 1h-49l-10-2-3-3-2-11v-11l-17 13-14 8-14 5-16 3h-18l-14-3-14-7-9-8-7-10-5-10-5-16-2-13v-29l3-22 6-21 8-18 9-14 9-11 9-9 10-7 15-8 16-5 7-1h21l14 3 14 7 10 8 4-29 5-38-10-1-13-3-5-5-1-6 3-24 1-1zm-49 128-12 4-10 6-9 9-8 14-4 10-5 21-2 22v10l2 14 5 13 4 5 10 6 7 2h16l15-4 11-7 14-12 2-9 10-79v-7l-7-8-9-6-13-4z" fill="#FB411F"/>
<path transform="translate(753,138)" d="m0 0h22l13 3 11 6 10 8 8 11 5 10 4 12 3 15v31l-3 21-5 19-8 19-6 11-9 12-10 11-11 8-12 7-13 5-16 3h-21l-14-3-12-6-10-9-2-1-1 16-3 24-1 4 9 1 14 3 5 5v14l-2 15-1 1h-109l-1-2 3-23 4-8 5-3 22-4 3-19 21-168 1-7-10-1-13-3-5-5v-13l2-16 1-1 15-1h40l11 1 5 4 2 12v10l11-8 10-7 17-9 14-4zm-20 38-12 3-12 7-15 13-2 7-10 83v5l8 9 10 6 12 3h15l13-4 10-6 8-8 7-11 5-11 5-19 2-14v-31l-3-12-4-8-5-6-10-5-4-1z" fill="#0283C6"/>
<path transform="translate(500,138)" d="m0 0h21l14 3 11 6 9 7 9 12 6 13 5 19 1 5v30l-3 21-5 19-6 16-8 15-9 12-8 9-13 10-12 7-13 5-17 3h-20l-14-3-12-6-10-9-2-1-1 15-4 29 15 2 10 3 3 4v13l-2 15-1 2h-109l-1-3 3-22 3-7 6-4 22-4 4-27 19-154 2-13-10-1-13-3-5-5v-14l2-15 1-1 17-1h37l12 1 5 5 2 13v8l19-14 14-8 14-5zm-20 38-12 3-12 7-14 12-2 2-11 88v6l9 10 12 6 9 2h14l12-3 12-7 8-8 7-11 5-12 5-19 2-14v-29l-3-13-5-9-5-5-6-4-7-2z" fill="#0283C6"/>
<path transform="translate(26,48)" d="m0 0h32l30 1-2 21-11 90-1 2 18-12 14-7 13-4 7-1h21l14 3 10 4 11 8 9 13 5 14 2 11v24l-11 90-1 3 11 1 12 3 5 5v13l-2 16-4 2h-73l-4-2 8-64 8-66v-14l-3-12-6-8-8-4-4-1h-17l-13 4-13 7-11 8-2 7-11 87-7 57-16 1h-33l-1-5 16-128 15-123v-3l-20-4-6-4-2-4 2-21 1-7z" fill="#0283C6"/>
<path transform="translate(1581,140)" d="m0 0h61l-1 16-14 117v14l2 9 5 8 5 4 10 3h15l12-3 16-8 10-8 2-4 12-98 1-8-23-5-5-6v-10l3-20 2-1h77l1 4-11 92-8 65v7l21 4 5 4 1 2v10l-2 17-3 3h-57l-9-2-4-6-1-7v-9l-5 3-14 10-12 6-15 5-13 2h-18l-14-3-9-4-6-4-6-5-8-11-5-12-3-12v-23l11-88 1-7-11-1-12-3-5-5v-14l2-16 1-1z" fill="#FB411F"/>
<path transform="translate(944,138)" d="m0 0h25l17 3 16 6 11 6 12 11 8 10 7 14 4 14 2 12v26l-3 19-6 20-8 16-9 14-9 10-7 7-10 7-10 6-19 7-14 3-9 1h-23l-14-2-16-5-12-6-10-8-8-8-8-12-6-15-4-18v-30l3-18 5-16 5-12 8-14 11-14 8-8 14-10 16-8 15-5zm-2 38-14 4-9 6-6 5-7 10-6 13-5 17-3 20v22l4 16 4 8 5 6 10 6 12 3h17l12-3 10-5 9-8 7-10 7-17 4-17 2-15v-20l-3-15-6-12-8-8-12-5-4-1z" fill="#0283C6"/>
<path transform="translate(1445,138)" d="m0 0h25l17 3 16 6 11 6 11 9 9 12 8 16 4 16 2 20-2 23-4 18-6 17-9 17-10 13-13 13-15 10-16 7-21 5-9 1h-22l-15-2-16-5-15-8-12-11-7-9-8-16-4-13-2-12v-27l3-18 6-20 8-16 7-11 11-13 9-8 15-10 16-7 21-5zm-2 38-13 4-9 5-5 4-9 12-7 16-4 15-3 20v20l3 14 6 12 5 5 5 4 10 4 6 1h17l12-3 10-5 10-9 7-11 6-15 4-16 2-15v-22l-3-15-6-11-4-5-10-6-10-3z" fill="#FC411F"/>
<path transform="translate(1159,138)" d="m0 0h24l17 3 21 6 13 5 1 4-7 55-1 5h-28l-3-4v-32l-17-3h-18l-11 3-12 6-9 8-8 13-7 19-3 15-1 10v16l3 16 5 12 6 7 10 6 11 3h18l13-4 11-6 11-7h10l5 5 10 15-1 5-12 10-14 9-15 6-17 4-14 2h-21l-13-2-14-5-12-7-12-11-9-14-5-11-5-19-1-10v-15l2-19 4-17 6-17 8-15 8-11 9-10 10-9 13-8 16-7 17-4z" fill="#FC411F"/>
<path transform="translate(1255,48)" d="m0 0h50l28 1-1 14-14 115-10 83-6 47 11 1 12 3 4 4 1 2v10l-2 18-4 2h-76l-1-4 10-79 21-172v-4l-20-4-6-4-2-7 3-24z" fill="#FB411F"/>
<path transform="translate(265,140)" d="m0 0h45l-1 15-18 147-1 6 11 1 12 3 5 5v14l-2 16-9 1h-69l-3-1 8-65 12-99 1-2-14-2-10-3-5-6 1-15 2-14z" fill="#0283C6"/>
<path transform="translate(674,517)" d="m0 0h14l10 4 5 4 2 3 1-10h20v90l-3 14-4 8-6 7-9 5-12 3h-10l-12-3-10-6-7-9-3-8v-6h18l6 8 8 4h11l7-4 4-6 1-3v-19l-9 8-8 3h-15l-10-5-6-5-7-11-4-15v-14l3-13 5-10 6-7 8-5zm6 19-6 4-5 6-3 8v13l3 8 7 8 8 3 8-1 8-5 5-8 1-3v-17l-4-8-5-5-5-3z" fill="#000102"/>
<path transform="translate(1638,517)" d="m0 0h12l11 4 6 5 3 5 2 1 2-4 9-8 8-3h13l10 4 7 6 5 9 2 6v61h-19l-1-54-4-8-6-4h-12l-6 4-3 5-1 5-1 52h-19l-1-53-4-9-6-4h-12l-5 3-4 5-1 3-1 54-1 1h-18l-1-1v-84h19l1 4-1 5 11-8z" fill="#000102"/>
<path transform="translate(1980,490)" d="m0 0h19v113h-19l-1-2v-8l-8 7-9 4h-15l-9-4-8-7-6-9-4-12-1-7v-10l4-16 5-9 8-8 8-4 3-1h14l10 4 8 7v-37zm-26 46-6 3-6 7-3 9v10l3 9 4 6 5 4 6 2 9-1 6-4 4-5 3-6 1-6v-8l-3-9-6-8-6-3z" fill="#000102"/>
<path transform="translate(1260,517)" d="m0 0h14l12 6 5 5 1-10h19l1 2v82l-1 1h-19l-1-10-8 7-9 4h-15l-12-6-8-9-5-10-3-16 1-13 5-15 6-8 7-6zm6 19-7 4-6 9-2 8v7l3 10 6 8 9 4 9-1 6-4 5-6 3-9v-11l-3-9-6-7-6-3z" fill="#000203"/>
<path transform="translate(255,490)" d="m0 0h19l1 37 7-6 10-4h12l10 4 5 4 6 10 3 14v54h-19l-1-46-2-12-4-6-6-3h-9l-6 3-4 5-2 7-1 52h-19z"/>
<path transform="translate(1863,517)" d="m0 0h16l11 4 10 9 5 8 3 10 1 15-1 4h-56l4 11 4 5 8 3 9-1 6-4 3-5h21l-2 6-6 10-9 8-11 4h-17l-12-5-7-6-6-9-4-12-1-7 1-16 4-12 7-10 8-6zm1 18-6 4-5 8-1 5 1 1h35l1-3-4-9-6-5-2-1z" fill="#000102"/>
<path transform="translate(1408,517)" d="m0 0h15l11 4 6 4 7 8 4 8 2 8v18h-56l4 11 4 5 8 3 9-1 5-3 4-6h21l-2 6-6 10-9 8-11 4h-17l-12-5-8-7-6-10-4-16v-10l3-14 5-10 7-8 12-6zm1 18-6 4-5 8-1 5 1 1h35l1-3-4-9-6-5-2-1z" fill="#000102"/>
<path transform="translate(807,517)" d="m0 0h16l11 4 10 9 5 8 3 10 1 13-1 6h-56l5 13 5 4 6 2 9-1 6-4 3-5h21l-2 6-6 10-9 8-11 4h-17l-12-5-5-4-6-8-5-11-2-11 1-16 4-11 6-10 11-8zm1 18-6 4-5 8-1 5 1 1h35l1-3-4-9-6-5-2-1z" fill="#000102"/>
<path transform="translate(111,517)" d="m0 0h16l11 4 8 6 6 8 4 10 1 6v16l-56 1 4 11 6 5 6 2 9-1 6-5 2-4h21l-1 5-5 9-5 6-10 6-6 2h-17l-10-4-8-6-6-8-4-9-2-9v-14l3-13 6-11 9-8 8-4zm1 18-8 7-3 7v4h36l1-2-4-10-8-6z" fill="#000102"/>
<path transform="translate(977,496)" d="m0 0h36l13 2 8 4 7 7 4 9 1 4v13l-3 10-6 8-5 4-6 3-10 2h-21v41h-19v-106zm19 17-1 1v31h20l6-3 4-5 1-3v-11l-3-5-3-3-3-1-13-1z" fill="#000102"/>
<path transform="translate(589,517)" d="m0 0h14l10 3 9 6 6 7 5 10 2 7v21l-4 12-8 11-10 7-10 3h-16l-10-4-8-6-7-9-4-10-2-16 3-15 6-12 5-6 9-6zm4 18-7 3-5 5-4 8-1 5v9l3 10 4 6 6 4 10 1 8-4 6-7 2-5v-19l-4-8-7-6-5-2z" fill="#000102"/>
<path transform="translate(463,517)" d="m0 0h15l10 3 8 6 8 9 5 12 1 5v18l-3 10-6 10-8 8-11 5-4 1h-17l-9-4-6-4-8-9-5-11-2-12 1-13 4-13 8-11 10-7zm5 18-7 3-5 4-4 8-1 4v13l4 11 7 6 5 2 10-1 6-4 5-6 2-6v-17l-4-9-7-6-6-2z" fill="#000101"/>
<path transform="translate(381,517)" d="m0 0h12l10 4 7 6 5 10 2 8 1 57-1 1h-19l-1-53-3-8-6-5-3-1h-9l-7 4-4 8-1 54-1 1h-18l-1-4v-81h19l1 5v4l9-7z" fill="#000102"/>
<path transform="translate(888,517)" d="m0 0h16l9 3 9 8 4 8 1 9h-18l-3-7-6-3h-10l-4 4v6l5 4 23 8 6 4 6 7 2 6v10l-5 10-8 7-9 3h-17l-10-4-8-7-5-8-2-9h20l3 6v2l5 2 8 1 7-3 2-6-2-4-12-5-15-5-9-6-4-7-1-4v-9l4-10 8-7z" fill="#000102"/>
<path transform="translate(196,517)" d="m0 0h15l11 4 8 6 7 11 2 8-1 1h-19l-6-8-5-3h-9l-6 3-5 7-2 8v13l3 10 4 5 6 3h9l6-3 5-8h20l-2 9-7 11-8 6-11 4h-17l-9-4-8-6-7-10-4-12-1-6v-10l3-14 7-13 8-7 9-4z" fill="#000102"/>
<path transform="translate(289,49)" d="m0 0h16l8 4 6 5 5 9 1 4v13l-4 10-7 8-7 6-10 4h-15l-8-3-6-5-5-8-2-7v-7l3-11 6-10 10-8z" fill="#0283C6"/>
<path transform="translate(1145,518)" d="m0 0h20l9 29 10 34 3-9 15-51 2-3h20l-3 11-24 72-1 2h-23l-4-9-14-41-10-31z" fill="#000102"/>
<path transform="translate(38,496)" d="m0 0h23l11 1v16h-25v89l-1 1h-18l-1-1v-89l-5 1h-19l-1-1v-16z" fill="#000406"/>
<path transform="translate(1787,497)" d="m0 0h19v21h17l1 1v16l-1 1h-17l1 44 4 4 12 1 1 1v16l-1 1h-17l-9-3-5-4-4-8-1-4v-48h-9l-1-7v-10l1-1h9z" fill="#000203"/>
<path transform="translate(1332,497)" d="m0 0h19v21h17l1 5v12l-1 1h-17l1 47 16 2 1 17-1 1h-17l-9-3-6-5-4-10v-49h-9l-1-1v-16l1-1h9z" fill="#000101"/>
<path transform="translate(1501,496)" d="m0 0h18v90h32v17h-51v-106z" fill="#000001"/>
<path transform="translate(523,490)" d="m0 0h19l1 1v111l-1 1h-18l-1-1z" fill="#00060A"/>
<path transform="translate(1097,517)" d="m0 0h6v23l-13 1-6 4-3 6-1 51-1 1h-18l-1-1v-84h19l1 4v7l8-8z" fill="#000204"/>
<path transform="translate(1746,518)" d="m0 0h18l1 1v83l-1 1h-18l-1-12v-72z" fill="#000305"/>
<path transform="translate(743,518)" d="m0 0h19l1 2v82l-1 1h-19z" fill="#000101"/>
<path transform="translate(1564,518)" d="m0 0h19v85h-19z"/>
<path transform="translate(1114,518)" d="m0 0h19v85h-19z"/>
<path transform="translate(1570,483)" d="m0 0h7l5 3 3 4 1 8-3 6-3 3-3 1h-7l-6-4-2-4v-8l3-6z" fill="#000304"/>
<path transform="translate(1120,483)" d="m0 0h7l5 3 3 4 1 8-3 6-3 3-3 1h-7l-5-3-3-5v-8l3-6z" fill="#000102"/>
<path transform="translate(1752,483)" d="m0 0h7l6 4 2 4v9l-4 6-4 2h-7l-5-3-3-4v-11l5-6z" fill="#000203"/>
<path transform="translate(750,483)" d="m0 0 9 1 5 5 1 3v7l-4 7-4 2h-8l-6-5-2-4 1-9 5-6z" fill="#000102"/>
</svg>
